<svg xmlns="http://www.w3.org/2000/svg" viewBox="0 0 96 96">
  <defs>
    <linearGradient id="cgold" x1="0" y1="0" x2="0" y2="1">
      <stop offset="0%" stop-color="#FEF3C7"/><stop offset="50%" stop-color="#FBBF24"/><stop offset="100%" stop-color="#B45309"/>
    </linearGradient>
    <linearGradient id="cshine" x1="0" y1="0" x2="1" y2="0">
      <stop offset="0%" stop-color="#FFFFFF" stop-opacity="0"/><stop offset="50%" stop-color="#FFFFFF" stop-opacity="0.85"/><stop offset="100%" stop-color="#FFFFFF" stop-opacity="0"/>
    </linearGradient>
  </defs>
  <g>
    <animateTransform attributeName="transform" type="translate" values="0 0;0 -2.5;0 0" dur="1.4s" repeatCount="indefinite"/>
    <path d="M20 34 L28 52 L40 38 L48 54 L56 38 L68 52 L76 34 L68 74 H28 Z" fill="url(#cgold)" stroke="#92400E" stroke-width="2.5"/>
    <path d="M20 34 L28 52 L40 38 L48 54 L56 38 L68 52 L76 34 L68 74 H28 Z" fill="url(#cshine)"/>
    <rect x="28" y="74" width="40" height="8" rx="3" fill="#B45309" stroke="#92400E" stroke-width="2"/>
  </g>
  <circle cx="48" cy="40" r="6.5" fill="#38BDF8" stroke="#0C4A6E" stroke-width="1.5">
    <animate attributeName="fill" values="#38BDF8;#A5F3FC;#38BDF8" dur="1.2s" repeatCount="indefinite"/>
  </circle>
  <path d="M44 40 L52 40 M48 36 L48 44" stroke="#FFFFFF" stroke-width="1.6" stroke-linecap="round"/>
  <circle cx="27" cy="46" r="5" fill="#F43F5E" stroke="#881337" stroke-width="1.5">
    <animate attributeName="r" values="5;6.4;5" dur="0.9s" repeatCount="indefinite"/>
  </circle>
  <circle cx="69" cy="46" r="5" fill="#34D399" stroke="#064E3B" stroke-width="1.5">
    <animate attributeName="r" values="5;3.8;5" dur="1.1s" repeatCount="indefinite"/>
  </circle>
</svg>
